<svg width="42" height="42" viewBox="0 0 42 42" fill="none" xmlns="http://www.w3.org/2000/svg">
<path d="M3.00458 22.2002C0.444578 23.8002 0.871245 27.4002 1.40458 29.0002C3.00449 31.5602 6.07128 31.6669 7.40469 31.4002L15.0047 26.6002L34.6047 22.2002L23.0047 2.2002L10.2047 18.2002C8.87132 18.8669 5.56458 20.6002 3.00458 22.2002Z" stroke="#F18A02"/>
<path d="M10.2051 18.2L15.0051 26.6" stroke="#F18A02"/>
<path d="M27.8045 9.40015H31.0045L33.0045 12.6001L31.4045 16.2001" stroke="#F18A02"/>
<path d="M3.8049 27.8C4.33823 28.4667 5.9649 29.4 8.2049 27.8" stroke="#F18A02"/>
<path d="M8.20486 31.0001L15.0049 41.0001L18.6049 38.6001L12.2049 28.6001" stroke="#F18A02"/>
<path d="M15.4055 26.6001L17.4055 29.8001L14.6055 31.8001" stroke="#F18A02"/>
<path d="M33.4055 1L32.6055 5" stroke="#F18A02"/>
<path d="M41.4039 5L37.0039 7.8" stroke="#F18A02"/>
<path d="M36.6055 12.5999L41.0055 13.7999" stroke="#F18A02"/>
<path d="M21.0039 5.3999L31.4039 22.9999" stroke="#F18A02"/>
</svg>
