<svg width="62" height="62" viewBox="0 0 62 62" fill="none" xmlns="http://www.w3.org/2000/svg">
<path d="M61 30.2036H1V61.0001H61V30.2036Z" stroke="#F18A02"/>
<path d="M33.3887 30.2036V61.0001" stroke="#F18A02"/>
<path d="M33.3887 36.5752H60.9993" stroke="#F18A02"/>
<path d="M7.90234 30.7344V54.6282H27.5484V30.7344" stroke="#F18A02"/>
<path d="M1 36.5752H7.37168" stroke="#F18A02"/>
<path d="M28.0801 36.5752H34.4518" stroke="#F18A02"/>
<path d="M7.90234 50.3804H27.5484" stroke="#F18A02"/>
<path d="M47.1939 52.5044H40.8223V56.7522H47.1939V52.5044Z" stroke="#F18A02"/>
<path d="M57.2838 52.5044H50.9121V56.7522H57.2838V52.5044Z" stroke="#F18A02"/>
<path d="M11.0879 47.1945V41.8848H23.8313V47.1945H11.0879Z" stroke="#F18A02"/>
<path d="M15.3359 42.416V47.1948" stroke="#F18A02"/>
<path d="M20.1152 41.8848V46.6635" stroke="#F18A02"/>
<path d="M60.4697 1H28.6113V22.7699H60.4697V1Z" stroke="#F18A02"/>
<path d="M42.9473 4.7168H35.5137V12.6814H42.9473V4.7168Z" stroke="#F18A02"/>
<path d="M46.6641 5.24805H55.1596" stroke="#F18A02"/>
<path d="M46.6641 8.96484H55.1596" stroke="#F18A02"/>
<path d="M46.6641 13.2124H55.1596" stroke="#F18A02"/>
<path d="M28.6113 16.9292H60.4697" stroke="#F18A02"/>
<path d="M39.7617 22.77V26.4868H50.3812V22.77" stroke="#F18A02"/>
<path d="M36.0449 30.7344V27.0176H54.098V30.7344" stroke="#F18A02"/>
</svg>
